<?xml version="1.0" encoding="UTF-8"?>
<!DOCTYPE svg PUBLIC "-//W3C//DTD SVG 1.1//EN" "http://www.w3.org/Graphics/SVG/1.1/DTD/svg11.dtd">
<svg xmlns="http://www.w3.org/2000/svg" version="1.1" width="148px" height="162px" style="shape-rendering:geometricPrecision; text-rendering:geometricPrecision; image-rendering:optimizeQuality; fill-rule:evenodd; clip-rule:evenodd" xmlns:xlink="http://www.w3.org/1999/xlink">
<g><path style="opacity:1" fill="#54beaf" d="M 60.5,-0.5 C 61.8333,-0.5 63.1667,-0.5 64.5,-0.5C 72.9685,2.11931 81.6352,4.45264 90.5,6.5C 94.0241,4.91248 97.6908,4.41248 101.5,5C 117.336,12.4155 132.67,20.5822 147.5,29.5C 147.5,31.8333 147.5,34.1667 147.5,36.5C 135.975,59.0487 124.309,81.5487 112.5,104C 109.97,105.422 107.303,105.755 104.5,105C 99.1667,102.333 93.8333,99.6667 88.5,97C 86.735,96.3603 85.0683,96.5269 83.5,97.5C 84.2297,93.591 84.2297,89.9243 83.5,86.5C 79.8591,88.8103 76.5257,91.477 73.5,94.5C 73.5,94.1667 73.5,93.8333 73.5,93.5C 76.5,89.8333 79.8333,86.5 83.5,83.5C 91.687,86.865 99.5203,90.865 107,95.5C 117.24,76.0205 127.24,56.3538 137,36.5C 137.749,35.365 137.583,34.365 136.5,33.5C 124.833,27.6667 113.167,21.8333 101.5,16C 100.056,15.2195 98.723,15.3861 97.5,16.5C 88.8201,33.8599 80.1534,51.1932 71.5,68.5C 66.1156,74.3881 61.2823,80.7214 57,87.5C 55.1266,89.7089 52.96,91.5422 50.5,93C 44.9442,93.0232 39.4442,92.5232 34,91.5C 30.5119,92.1838 26.6786,92.5171 22.5,92.5C 21.9278,90.7446 21.0945,89.0779 20,87.5C 20.2341,61.8147 21.2341,36.148 23,10.5C 24.1667,8 26,6.16667 28.5,5C 36.9331,5.22085 45.5998,5.22085 54.5,5C 55.7711,2.22275 57.7711,0.389415 60.5,-0.5 Z"/></g>
<g><path style="opacity:1" fill="#f2bd44" d="M 63.5,9.5 C 71.0221,11.9641 78.6888,13.9641 86.5,15.5C 77.8312,34.8349 68.6645,53.8349 59,72.5C 58.5045,74.4727 58.3379,76.4727 58.5,78.5C 54.5,77.8333 50.5,77.1667 46.5,76.5C 51.3865,53.9538 57.0532,31.6205 63.5,9.5 Z"/></g>
<g><path style="opacity:1" fill="#f2bd44" d="M 31.5,14.5 C 38.1373,15.2757 44.8039,15.609 51.5,15.5C 47.141,34.6023 42.3077,53.6023 37,72.5C 36.0715,76.2441 36.5715,79.7441 38.5,83C 35.1745,83.1719 31.8411,83.0053 28.5,82.5C 29.551,60.1137 30.551,37.4471 31.5,14.5 Z"/></g>
<g><path style="opacity:1" fill="#f3bc45" d="M 83.5,83.5 C 85.3496,79.3546 85.8496,75.0213 85,70.5C 81.0919,65.9674 76.5919,65.3008 71.5,68.5C 80.1534,51.1932 88.8201,33.8599 97.5,16.5C 98.723,15.3861 100.056,15.2195 101.5,16C 113.167,21.8333 124.833,27.6667 136.5,33.5C 137.583,34.365 137.749,35.365 137,36.5C 127.24,56.3538 117.24,76.0205 107,95.5C 99.5203,90.865 91.687,86.865 83.5,83.5 Z"/></g>
<g><path style="opacity:1" fill="#fe4b1c" d="M 83.5,83.5 C 79.8333,86.5 76.5,89.8333 73.5,93.5C 69.6662,97.6675 67.9995,102.668 68.5,108.5C 66.7475,111.146 65.7475,114.146 65.5,117.5C 65.5,117.833 65.5,118.167 65.5,118.5C 64.8902,119.391 64.5569,120.391 64.5,121.5C 62.5969,124.979 60.9302,128.646 59.5,132.5C 58.5,132.833 57.8333,133.5 57.5,134.5C 57.4894,136.017 56.8228,137.184 55.5,138C 53.2833,139.723 50.95,141.223 48.5,142.5C 46.9731,142.427 45.9731,143.094 45.5,144.5C 44.8333,144.833 44.1667,145.167 43.5,145.5C 42.448,145.649 41.448,145.483 40.5,145C 33.2224,138.543 25.5557,132.709 17.5,127.5C 17.5,126.833 17.1667,126.5 16.5,126.5C 14.8325,124.521 14.1658,122.188 14.5,119.5C 14.5,119.167 14.5,118.833 14.5,118.5C 16.0739,116.898 16.7406,114.898 16.5,112.5C 16.5,112.167 16.5,111.833 16.5,111.5C 17.404,110.791 17.7373,109.791 17.5,108.5C 17.5569,107.391 17.8902,106.391 18.5,105.5C 19.404,104.791 19.7373,103.791 19.5,102.5C 19.5,102.167 19.5,101.833 19.5,101.5C 20.404,100.791 20.7373,99.791 20.5,98.5C 22.2132,97.3646 22.8799,95.698 22.5,93.5C 22.5,93.1667 22.5,92.8333 22.5,92.5C 26.6786,92.5171 30.5119,92.1838 34,91.5C 39.4442,92.5232 44.9442,93.0232 50.5,93C 52.96,91.5422 55.1266,89.7089 57,87.5C 61.2823,80.7214 66.1156,74.3881 71.5,68.5C 76.5919,65.3008 81.0919,65.9674 85,70.5C 85.8496,75.0213 85.3496,79.3546 83.5,83.5 Z"/></g>
<g><path style="opacity:1" fill="#fe5a2a" d="M 83.5,97.5 C 83.2503,99.674 82.2503,101.341 80.5,102.5C 79.1667,103.167 78.1667,104.167 77.5,105.5C 79.4044,105.262 80.7377,104.262 81.5,102.5C 82.3382,102.842 82.6716,103.508 82.5,104.5C 81.6561,107.678 79.9895,110.345 77.5,112.5C 77.8333,113.833 78.1667,113.833 78.5,112.5C 79.1667,112.167 79.8333,111.833 80.5,111.5C 81.3382,111.842 81.6716,112.508 81.5,113.5C 80.8902,114.391 80.5569,115.391 80.5,116.5C 76.4631,121.299 71.4631,122.966 65.5,121.5C 66.1098,120.609 66.4431,119.609 66.5,118.5C 66.5,118.167 66.5,117.833 66.5,117.5C 67.609,117.443 68.609,117.11 69.5,116.5C 70.8333,116.167 70.8333,115.833 69.5,115.5C 68.5386,113.735 68.2053,111.735 68.5,109.5C 68.8333,109.5 69.1667,109.5 69.5,109.5C 74.6294,108.386 74.6294,107.719 69.5,107.5C 70.0303,102.91 71.3637,98.5763 73.5,94.5C 76.5257,91.477 79.8591,88.8103 83.5,86.5C 84.2297,89.9243 84.2297,93.591 83.5,97.5 Z"/></g>
<g><path style="opacity:0.875" fill="#ff9e7e" d="M 22.5,93.5 C 22.8799,95.698 22.2132,97.3646 20.5,98.5C 21.1712,97.1529 21.1712,95.9862 20.5,95C 21.0442,94.2828 21.7109,93.7828 22.5,93.5 Z"/></g>
<g><path style="opacity:0.424" fill="#fbb29b" d="M 42.5,95.5 C 43.525,95.8966 43.6917,96.5632 43,97.5C 42,98.1667 41,98.8333 40,99.5C 40.1929,97.9176 41.0262,96.5843 42.5,95.5 Z"/></g>
<g><path style="opacity:0.312" fill="#fdc1a8" d="M 73.5,93.5 C 73.5,93.8333 73.5,94.1667 73.5,94.5C 71.3637,98.5763 70.0303,102.91 69.5,107.5C 74.6294,107.719 74.6294,108.386 69.5,109.5C 69.5,108.833 69.1667,108.5 68.5,108.5C 67.9995,102.668 69.6662,97.6675 73.5,93.5 Z"/></g>
<g><path style="opacity:0.286" fill="#ffdbcf" d="M 20.5,98.5 C 20.7373,99.791 20.404,100.791 19.5,101.5C 19.0618,101.565 18.7284,101.399 18.5,101C 19.0659,100.005 19.7326,99.172 20.5,98.5 Z"/></g>
<g><path style="opacity:0.573" fill="#ffc0a3" d="M 80.5,102.5 C 80.8333,102.5 81.1667,102.5 81.5,102.5C 80.7377,104.262 79.4044,105.262 77.5,105.5C 78.1667,104.167 79.1667,103.167 80.5,102.5 Z"/></g>
<g><path style="opacity:0.431" fill="#fdcbba" d="M 19.5,102.5 C 19.7373,103.791 19.404,104.791 18.5,105.5C 18.0618,105.565 17.7284,105.399 17.5,105C 18.0659,104.005 18.7326,103.172 19.5,102.5 Z"/></g>
<g><path style="opacity:0.243" fill="#f7e0d4" d="M 77.5,105.5 C 76.8783,106.627 76.045,107.627 75,108.5C 74.4808,106.511 75.3141,105.511 77.5,105.5 Z"/></g>
<g><path style="opacity:0.012" fill="#ffceb8" d="M 82.5,104.5 C 83.0967,104.735 83.4301,105.235 83.5,106C 82.8758,108.085 81.8758,109.918 80.5,111.5C 79.8333,111.833 79.1667,112.167 78.5,112.5C 78.1667,112.5 77.8333,112.5 77.5,112.5C 79.9895,110.345 81.6561,107.678 82.5,104.5 Z"/></g>
<g><path style="opacity:0.282" fill="#fbdad1" d="M 17.5,108.5 C 17.7373,109.791 17.404,110.791 16.5,111.5C 16.0618,111.565 15.7284,111.399 15.5,111C 16.0659,110.005 16.7326,109.172 17.5,108.5 Z"/></g>
<g><path style="opacity:0.396" fill="#fdc2a8" d="M 68.5,108.5 C 68.5,108.833 68.5,109.167 68.5,109.5C 68.2053,111.735 68.5386,113.735 69.5,115.5C 69.5,115.833 69.5,116.167 69.5,116.5C 68.609,117.11 67.609,117.443 66.5,117.5C 66.1667,117.5 65.8333,117.5 65.5,117.5C 65.7475,114.146 66.7475,111.146 68.5,108.5 Z"/></g>
<g><path style="opacity:0.557" fill="#ffccba" d="M 16.5,112.5 C 16.7406,114.898 16.0739,116.898 14.5,118.5C 14.2594,116.102 14.9261,114.102 16.5,112.5 Z"/></g>
<g><path style="opacity:0.024" fill="#f8ddcb" d="M 81.5,113.5 C 82.7152,114.779 82.3818,115.779 80.5,116.5C 80.5569,115.391 80.8902,114.391 81.5,113.5 Z"/></g>
<g><path style="opacity:0.004" fill="#fae9df" d="M 65.5,118.5 C 65.8333,118.5 66.1667,118.5 66.5,118.5C 66.4431,119.609 66.1098,120.609 65.5,121.5C 65.1667,121.5 64.8333,121.5 64.5,121.5C 64.5569,120.391 64.8902,119.391 65.5,118.5 Z"/></g>
<g><path style="opacity:1" fill="#ff4d1e" d="M 12.5,123.5 C 13.5,125.167 14.8333,126.5 16.5,127.5C 16.8333,127.5 17.1667,127.5 17.5,127.5C 25.1831,134.514 33.1831,141.18 41.5,147.5C 42.6414,149.451 42.6414,151.451 41.5,153.5C 40.5,153.833 39.8333,154.5 39.5,155.5C 38.0937,155.973 37.427,156.973 37.5,158.5C 37.5,159.167 37.1667,159.5 36.5,159.5C 33.2153,159.79 30.2153,159.123 27.5,157.5C 26.0892,155.086 24.0892,153.419 21.5,152.5C 20.4154,150.413 18.7488,149.08 16.5,148.5C 15.0892,146.086 13.0892,144.419 10.5,143.5C 9.41543,141.413 7.74876,140.08 5.5,139.5C 4.16667,137.5 2.5,135.833 0.5,134.5C 0.5,133.833 0.5,133.167 0.5,132.5C 1.40128,131.71 2.06795,130.71 2.5,129.5C 2.5,128.833 2.83333,128.5 3.5,128.5C 4.90632,128.027 5.57298,127.027 5.5,125.5C 7.26495,122.551 9.59828,121.885 12.5,123.5 Z"/></g>
<g><path style="opacity:0.075" fill="#f7f0e8" d="M 14.5,119.5 C 14.1658,122.188 14.8325,124.521 16.5,126.5C 16.5,126.833 16.5,127.167 16.5,127.5C 14.8333,126.5 13.5,125.167 12.5,123.5C 13.1667,122.167 13.8333,120.833 14.5,119.5 Z"/></g>
<g><path style="opacity:0.012" fill="#f9e1d9" d="M 64.5,121.5 C 64.1631,125.836 62.4965,129.503 59.5,132.5C 60.9302,128.646 62.5969,124.979 64.5,121.5 Z"/></g>
<g><path style="opacity:0.349" fill="#f8c0ac" d="M 5.5,125.5 C 5.57298,127.027 4.90632,128.027 3.5,128.5C 3.42702,126.973 4.09368,125.973 5.5,125.5 Z"/></g>
<g><path style="opacity:0.043" fill="#f6f5f3" d="M 2.5,129.5 C 2.06795,130.71 1.40128,131.71 0.5,132.5C 0.166667,132.5 -0.166667,132.5 -0.5,132.5C -0.5,131.833 -0.5,131.167 -0.5,130.5C 0.391047,129.89 1.39105,129.557 2.5,129.5 Z"/></g>
<g><path style="opacity:0.051" fill="#ffe8e1" d="M 59.5,132.5 C 59.5,133.833 58.8333,134.5 57.5,134.5C 57.8333,133.5 58.5,132.833 59.5,132.5 Z"/></g>
<g><path style="opacity:0.075" fill="#f7d1bc" d="M 0.5,134.5 C 2.5,135.833 4.16667,137.5 5.5,139.5C 2.83333,138.833 1.16667,137.167 0.5,134.5 Z"/></g>
<g><path style="opacity:0.71" fill="#fcc9b6" d="M 5.5,139.5 C 7.74876,140.08 9.41543,141.413 10.5,143.5C 9.88258,143.611 9.38258,143.944 9,144.5C 8.00272,142.677 6.83606,141.01 5.5,139.5 Z"/></g>
<g><path style="opacity:0.208" fill="#fad1c0" d="M 17.5,127.5 C 25.5557,132.709 33.2224,138.543 40.5,145C 41.448,145.483 42.448,145.649 43.5,145.5C 42.8333,146.167 42.1667,146.833 41.5,147.5C 33.1831,141.18 25.1831,134.514 17.5,127.5 Z"/></g>
<g><path style="opacity:0.024" fill="#fbd3bc" d="M 48.5,142.5 C 48.0269,143.906 47.0269,144.573 45.5,144.5C 45.9731,143.094 46.9731,142.427 48.5,142.5 Z"/></g>
<g><path style="opacity:0.165" fill="#facfbf" d="M 10.5,143.5 C 13.0892,144.419 15.0892,146.086 16.5,148.5C 13.9108,147.581 11.9108,145.914 10.5,143.5 Z"/></g>
<g><path style="opacity:0.037" fill="#fae9df" d="M 41.5,147.5 C 42.6491,147.791 43.3158,148.624 43.5,150C 43.6134,151.699 42.9468,152.866 41.5,153.5C 42.6414,151.451 42.6414,149.451 41.5,147.5 Z"/></g>
<g><path style="opacity:0.173" fill="#feded1" d="M 16.5,148.5 C 18.7488,149.08 20.4154,150.413 21.5,152.5C 19.2512,151.92 17.5846,150.587 16.5,148.5 Z"/></g>
<g><path style="opacity:0.067" fill="#fefdfb" d="M 41.5,153.5 C 41.5,154.833 40.8333,155.5 39.5,155.5C 39.8333,154.5 40.5,153.833 41.5,153.5 Z"/></g>
<g><path style="opacity:0.192" fill="#ffe5db" d="M 21.5,152.5 C 24.0892,153.419 26.0892,155.086 27.5,157.5C 24.9108,156.581 22.9108,154.914 21.5,152.5 Z"/></g>
<g><path style="opacity:0.008" fill="#fbcdba" d="M 39.5,155.5 C 39.573,157.027 38.9063,158.027 37.5,158.5C 37.427,156.973 38.0937,155.973 39.5,155.5 Z"/></g>
<g><path style="opacity:0.851" fill="#ffb99d" d="M 27.5,157.5 C 30.2153,159.123 33.2153,159.79 36.5,159.5C 36.1667,160.167 35.8333,160.833 35.5,161.5C 34.5,161.5 33.5,161.5 32.5,161.5C 30.3384,160.872 28.6718,159.539 27.5,157.5 Z"/></g>
</svg>
